<?xml version="1.0" encoding="UTF-8" standalone="no"?><!DOCTYPE svg PUBLIC "-//W3C//DTD SVG 1.1//EN" "http://www.w3.org/Graphics/SVG/1.1/DTD/svg11.dtd"><svg width="100%" height="100%" viewBox="0 0 446 446" version="1.1" xmlns="http://www.w3.org/2000/svg" xmlns:xlink="http://www.w3.org/1999/xlink" xml:space="preserve" xmlns:serif="http://www.serif.com/" style="fill-rule:evenodd;clip-rule:evenodd;stroke-linejoin:round;stroke-miterlimit:2;"><path d="M445.356,445.356l-445.356,0l0,-445.356l445.356,0l0,445.356Zm-29.166,-416.189l-387.023,-0l-0,387.023l387.023,-0l-0,-387.023Zm-208.405,357.004l-148.98,-0l-0,-326.399l29.759,0l-0,296.64l29.944,-0l0,-296.64l29.759,0l0,296.64l29.759,-0l-0,-296.64l29.759,0l-0,326.399Zm149.313,-0l-119.992,-0l-0,-326.399l119.992,0l29.758,29.945l0,266.695l-29.758,29.759Zm-15.066,-29.759l15.066,-14.879l-0,-236.937l-15.066,-14.879l-75.167,-0l-0,266.695l75.167,-0Z" style="fill:#2563eb;"/></svg>