<?xml version="1.0" encoding="UTF-8" standalone="no"?><!DOCTYPE svg PUBLIC "-//W3C//DTD SVG 1.1//EN" "http://www.w3.org/Graphics/SVG/1.1/DTD/svg11.dtd"><svg width="100%" height="100%" viewBox="0 0 1028 285" version="1.1" xmlns="http://www.w3.org/2000/svg" xmlns:xlink="http://www.w3.org/1999/xlink" xml:space="preserve" xmlns:serif="http://www.serif.com/" style="fill-rule:evenodd;clip-rule:evenodd;stroke-linejoin:round;stroke-miterlimit:2;"><g><path d="M157.893,284.443l-157.893,0l0,-284.443l31.539,0l0,252.904l31.736,0l0,-252.904l31.539,0l0,252.904l31.54,0l-0,-252.904l31.539,0l-0,284.443Z" style="fill-rule:nonzero;"/><path d="M663.266,284.443l-127.171,0l0,-284.443l127.171,0l31.539,31.736l0,221.168l-31.539,31.539Zm-15.967,-31.539l15.967,-15.769l-0,-189.629l-15.967,-15.77l-79.665,0l0,221.168l79.665,0Z" style="fill-rule:nonzero;"/><path d="M796.403,284.443l-63.275,0l-0,-284.443l63.275,0l0,31.736l-31.736,0l-0,95.026l31.736,-0l0,31.736l-31.736,-0l-0,94.406l31.736,0l0,31.539Z" style="fill-rule:nonzero;"/><path d="M898.001,284.443l-63.275,0l-0,-284.443l63.275,0l0,31.736l-31.736,0l-0,221.168l31.736,0l0,31.539Z" style="fill-rule:nonzero;"/><path d="M259.491,284.443l-63.276,0l0,-284.443l63.276,0l-0,31.736l-31.737,0l0,95.026l31.737,-0l-0,31.736l-31.737,-0l0,94.406l31.737,0l-0,31.539Z" style="fill-rule:nonzero;"/><path d="M361.089,284.443l-63.276,0l0,-284.443l63.276,0l-0,31.736l-31.737,0l0,95.026l31.737,-0l-0,31.736l-31.737,-0l0,94.406l31.737,0l-0,31.539Z" style="fill-rule:nonzero;"/><path d="M1027.59,284.443l-31.539,0l0,-110.237l-15.966,-15.77l-15.77,0l0,126.007l-31.539,0l-0,-284.443l31.539,0l0,126.7l15.77,0l15.966,-15.769l0,-110.931l31.539,0l0,126.7l-15.769,15.77l15.769,15.966l0,126.007Z" style="fill-rule:nonzero;"/><path d="M494.226,284.443l-31.539,0l-0,-110.237l-15.967,-15.77l-15.77,0l0,126.007l-31.539,0l0,-284.443l31.539,0l0,126.7l15.77,0l15.967,-15.769l-0,-110.931l31.539,0l-0,126.7l-15.77,15.77l15.77,15.966l-0,126.007Z" style="fill-rule:nonzero;"/></g></svg>