<?xml version="1.0" encoding="UTF-8" standalone="no"?><!DOCTYPE svg PUBLIC "-//W3C//DTD SVG 1.1//EN" "http://www.w3.org/Graphics/SVG/1.1/DTD/svg11.dtd"><svg width="100%" height="100%" viewBox="0 0 405 552" version="1.1" xmlns="http://www.w3.org/2000/svg" xmlns:xlink="http://www.w3.org/1999/xlink" xml:space="preserve" xmlns:serif="http://www.serif.com/" style="fill-rule:evenodd;clip-rule:evenodd;stroke-linejoin:round;stroke-miterlimit:2;"><path d="M149.751,268.387l-148.98,-0l0,-268.387l29.759,0l-0,238.628l29.944,-0l0,-238.628l29.759,0l0,238.628l29.759,-0l-0,-238.628l29.759,0l-0,268.387Zm-29.759,283.595l-119.992,0l-0,-268.386l119.992,-0l29.759,29.944l-0,208.684l-29.759,29.758Zm-15.065,-29.758l15.065,-14.88l-0,-178.924l-15.065,-14.88l-75.168,0l-0,208.684l75.168,-0Zm119.499,29.758l-59.703,0l0,-268.386l59.703,-0l0,29.944l-29.944,0l-0,89.662l29.944,-0l0,29.944l-29.944,0l-0,89.078l29.944,-0l0,29.758Zm75.371,0l-59.704,0l0,-268.386l59.704,-0l-0,29.944l-29.945,0l0,208.684l29.945,-0l-0,29.758Zm-75.371,-283.595l-59.703,-0l0,-268.387l59.703,-0l0,29.945l-29.944,-0l-0,89.661l29.944,-0l0,29.945l-29.944,-0l-0,89.077l29.944,-0l0,29.759Zm75.371,-0l-59.704,-0l0,-268.387l59.704,-0l-0,29.945l-29.945,-0l0,89.661l29.945,-0l-0,29.945l-29.945,-0l0,89.077l29.945,-0l-0,29.759Zm104.366,283.595l-29.758,0l-0,-104.014l-15.066,-14.88l-14.879,0l-0,118.894l-29.759,0l0,-268.386l29.759,-0l-0,119.548l14.879,-0l15.066,-14.88l-0,-104.668l29.758,-0l0,119.548l-14.879,14.879l14.879,15.065l0,118.894Zm0,-283.595l-29.758,-0l-0,-104.015l-15.066,-14.879l-14.879,-0l-0,118.894l-29.759,-0l0,-268.387l29.759,-0l-0,119.548l14.879,-0l15.066,-14.879l-0,-104.669l29.758,-0l0,119.548l-14.879,14.879l14.879,15.066l0,118.894Z" style="fill:#fff;"/></svg>